<?xml version="1.0" encoding="UTF-8" standalone="no"?>
<!-- Created with Inkscape (http://www.inkscape.org/) -->

<svg
   version="1.1"
   id="svg1"
   width="119.18432"
   height="145.63522"
   viewBox="0 0 119.18432 145.63522"
   xml:space="preserve"
   xmlns="http://www.w3.org/2000/svg"
   xmlns:svg="http://www.w3.org/2000/svg"><defs
     id="defs1" /><g
     id="g1"
     transform="translate(-36.231483,-18.326694)"><path
       style="fill:rgba(203,203,203,0.22);stroke-width:0.889435"
       d="m 36.231493,157.0133 c 0,-5.92836 0.186032,-6.70015 1.551616,-6.43717 1.028226,0.19803 1.971701,1.87016 2.796976,4.95712 0.684947,2.56206 1.536442,4.65829 1.89221,4.65829 0.355768,0 1.231239,-2.10129 1.945493,-4.66954 0.822238,-2.95652 1.842888,-4.77502 2.782216,-4.9571 1.279861,-0.24809 1.483575,0.63736 1.483575,6.4484 0,7.85493 -1.732108,9.35698 -1.870116,1.62173 l -0.09125,-5.11425 -1.574012,4.89189 c -0.865705,2.69054 -2.076508,4.89189 -2.69067,4.89189 -0.614164,0 -1.824966,-2.20135 -2.690672,-4.89189 l -1.57401,-4.89189 -0.09125,5.11425 c -0.138008,7.73525 -1.870114,6.2332 -1.870114,-1.62173 z m 16.901555,4.96139 c -1.261582,-2.35728 -0.549751,-9.78316 1.034032,-10.78711 0.652993,-0.41392 1.98775,-0.75258 2.966129,-0.75258 3.477186,0 4.108175,1.18229 3.826208,7.16922 l -0.26847,5.70034 -3.277208,0.27258 c -2.588421,0.21529 -3.488115,-0.1215 -4.280691,-1.60245 z m 6.04383,-4.67382 c -0.234287,-4.91838 -0.48597,-5.59048 -2.184128,-5.83245 -1.500073,-0.21375 -2.046222,0.30425 -2.500238,2.37138 -0.3195,1.45467 -0.311811,4.07928 0.01709,5.83245 0.491765,2.62133 0.982958,3.18759 2.765038,3.18759 2.093527,0 2.158059,-0.18858 1.902242,-5.55897 z m 6.40596,-0.22235 v -6.67076 h 2.726777 c 4.937346,0 6.167571,1.30134 6.167571,6.52416 0,5.57017 -1.008839,6.81736 -5.514496,6.81736 h -3.379852 z m 6.955012,1.86365 c 0.445015,-5.43715 -0.412558,-7.64498 -2.969501,-7.64498 -2.125199,0 -2.206641,0.21555 -2.206641,5.8404 v 5.84041 l 2.445945,-0.28144 c 2.143586,-0.24664 2.481084,-0.71075 2.730197,-3.75439 z m 5.500548,4.14003 c 0.0019,-0.36689 0.738488,-3.26867 1.63684,-6.4484 2.296473,-8.12839 3.946199,-8.12053 6.373647,0.0304 1.804252,6.05834 1.73931,9.28821 -0.119954,5.96589 -1.062154,-1.89797 -5.090312,-2.04742 -5.793494,-0.21495 -0.524129,1.36586 -2.103294,1.86819 -2.097039,0.66708 z m 6.564206,-5.33661 c -1.105767,-4.64963 -1.903456,-5.35612 -2.947397,-2.6104 -1.483764,3.90253 -1.189726,5.05635 1.288554,5.05635 1.992276,0 2.176079,-0.27102 1.658843,-2.44595 z m 11.404405,-0.44472 c 0.33448,-8.25356 2.03845,-8.67721 4.553481,-1.13213 1.92789,5.78367 2.23215,5.63877 4.15938,-1.98089 0.57837,-2.28668 1.46964,-3.78009 2.25596,-3.78009 1.02466,0 1.29988,1.41234 1.29988,6.67076 0,3.85421 -0.37555,6.67076 -0.88944,6.67076 -0.48919,0 -0.92809,-2.30142 -0.97533,-5.11425 l -0.0859,-5.11425 -1.42381,5.11425 c -0.79138,2.84256 -1.93276,5.11425 -2.56961,5.11425 -0.63019,0 -1.60103,-1.80791 -2.15744,-4.01758 -1.410501,-5.6016 -2.571711,-5.81928 -2.571711,-0.48209 0,2.53273 -0.40583,4.49967 -0.9284,4.49967 -0.58357,0 -0.83134,-2.39509 -0.66707,-6.44841 z m 16.736681,6.00369 c -0.0196,-0.48919 0.65663,-3.59109 1.50287,-6.89312 1.88392,-7.35107 4.06061,-8.21314 5.61445,-2.22359 0.53936,2.07906 1.32302,5.0809 1.74145,6.67076 0.75403,2.86492 -0.21195,4.12173 -1.19631,1.55651 -0.70248,-1.83062 -4.99923,-1.68239 -6.44514,0.22236 -0.64986,0.85608 -1.19765,1.15627 -1.21732,0.66708 z m 6.40319,-3.60747 c 0.68765,-0.68765 -1.2176,-6.62103 -2.12606,-6.62103 -0.40712,0 -0.7402,0.35021 -0.7402,0.77825 0,0.42805 -0.25015,2.02903 -0.5559,3.55774 -0.47121,2.35606 -0.29055,2.77949 1.18591,2.77949 0.95799,0 1.96431,-0.2225 2.23625,-0.49445 z m 6.91752,-2.61857 c 0,-8.24622 1.75717,-9.10042 4.60817,-2.24013 1.99571,4.80223 3.87697,5.0993 3.12966,0.49421 -0.25471,-1.56966 -0.10483,-3.41994 0.33308,-4.11174 0.5089,-0.80396 0.80111,1.22944 0.80981,5.6353 0.008,4.07014 -0.35534,6.89312 -0.88732,6.89312 -0.49553,0 -1.99645,-2.30142 -3.33538,-5.11425 l -2.43443,-5.11425 -0.26675,5.11425 c -0.39075,7.49175 -1.95684,6.24605 -1.95684,-1.55651 z m 13.34152,0 c 0,-3.85422 0.37554,-6.67076 0.88944,-6.67076 0.51389,0 0.88943,2.81654 0.88943,6.67076 0,3.85421 -0.37554,6.67076 -0.88943,6.67076 -0.5139,0 -0.88944,-2.81655 -0.88944,-6.67076 z m 7.17826,0.6699 c 0.94385,-3.30047 1.71609,-6.30231 1.71609,-6.67076 0,-0.36845 0.73487,-0.6699 1.63304,-0.6699 1.23767,0 1.99136,1.28878 3.11302,5.32317 0.81399,2.92776 1.46725,6.02966 1.45169,6.89312 -0.0269,1.4936 -0.0857,1.49425 -1.20985,0.0134 -1.44591,-1.90475 -5.74266,-2.05298 -6.44513,-0.22236 -0.28158,0.73379 -0.84113,1.33416 -1.24346,1.33416 -0.40232,0 0.0407,-2.70039 0.9846,-6.00086 z m 4.92361,-0.41975 c -0.88708,-4.43539 -1.98537,-4.71099 -2.99065,-0.75046 -0.89123,3.51117 -0.85382,3.61333 1.32303,3.61333 2.04857,0 2.19122,-0.24489 1.66762,-2.86287 z M 36.231493,80.612941 c 0,-48.774448 0.226342,-60.952093 1.132903,-60.952093 0.623096,0 6.522961,7.286892 13.110811,16.193095 6.587849,8.906202 15.325802,20.413264 19.417672,25.571248 4.09187,5.157984 11.430423,14.681407 16.307895,21.163162 4.877475,6.481756 9.221455,11.785014 9.653305,11.785014 0.72178,0 45.110281,-57.100113 52.890911,-68.037369 0.97837,-1.375311 2.8678,-3.740031 4.19873,-5.254934 l 2.41988,-2.754369 0.0261,20.327808 0.0261,20.327809 -14.95434,20.586188 c -14.8558,20.45055 -16.96081,23.37209 -34.05795,47.26924 -4.89985,6.84864 -9.384851,12.93756 -9.966681,13.53092 -0.82297,0.83927 -3.13169,-1.80829 -10.396939,-11.92279 -5.136485,-7.1509 -9.503097,-13.43173 -9.703582,-13.9574 -0.200485,-0.52568 -3.802696,-5.75931 -8.004913,-11.63029 l -7.640394,-10.674513 -0.444718,24.442513 -0.444717,24.44251 -11.78501,0.24818 -11.78501,0.24817 z"
       id="path1" /></g></svg>
